<?xml version="1.0" encoding="UTF-8"?><svg id="Layer_2" xmlns="http://www.w3.org/2000/svg" viewBox="0 0 575.05 95.86"><g id="Laag_1"><path d="M18.17,94.55H0V1.71h18.17v38.58h24.49V1.71h18.17v92.83h-18.17v-38.45h-24.49v38.45Z"/><path d="M119.88,76.24h-26.99l-5.14,18.3h-18.44L96.57,1.71h19.88l26.86,92.83h-18.57l-4.87-18.3ZM96.7,60.57h19.36l-9.48-36.34-9.88,36.34Z"/><path d="M208.86,47.01v16.86c0,18.96-12.77,32-31.21,32s-31.08-13.04-31.08-32v-31.73c0-18.96,12.77-32.13,31.08-32.13s30.81,12.9,31.21,31.34h-18.17c0-9.88-5.14-13.96-12.77-13.96-8.16,0-13.04,4.21-13.04,16.59v30.55c0,9.48,4.87,13.96,12.77,13.96,6.72,0,13.04-3.69,13.04-13.96v-1.58h-12.91v-15.93h31.08Z"/><path d="M262.99,1.71h18.17v62.15c0,19.75-12.9,32-31.21,32s-31.08-12.12-31.08-32V1.71h18.17v62.81c0,10.27,5.79,14.09,12.9,14.09,6.72,0,13.04-3.82,13.04-14.09V1.71Z"/><path d="M345.96,19.23h-33.97v21.07h25.15v15.8h-25.15v21.07h33.97v17.38h-52.15V1.71h52.15v17.51Z"/><path d="M416.5,47.01v16.86c0,18.96-12.77,32-31.21,32s-31.08-13.04-31.08-32v-31.73c0-18.96,12.77-32.13,31.08-32.13s30.81,12.9,31.21,31.34h-18.17c0-9.88-5.13-13.96-12.77-13.96-8.16,0-13.04,4.21-13.04,16.59v30.55c0,9.48,4.87,13.96,12.77,13.96,6.72,0,13.04-3.69,13.04-13.96v-1.58h-12.9v-15.93h31.08Z"/><path d="M444.85,61.1L418.64,1.71h18.96l16.46,39.24L470.66,1.71h18.83l-26.47,59.39v33.45h-18.17v-33.45Z"/><path d="M515.67,42.53v52.01h-18.17V1.71h18.04l20.81,51.49,20.67-51.49h18.04v92.83h-18.17v-52.28l-14.48,34.9h-12.38l-14.35-34.63Z"/></g></svg>